<svg width="176" height="198" viewBox="0 0 176 198" fill="none" xmlns="http://www.w3.org/2000/svg">
<path fill-rule="evenodd" clip-rule="evenodd" d="M80.4902 95.5C86.2842 75.098 104.995 60.1597 127.182 60.1597C153.993 60.1597 175.727 81.9735 175.727 108.882C175.727 135.791 153.993 157.605 127.182 157.605C126.103 157.605 125.032 157.57 123.97 157.5H126.364V141.354C126.635 141.361 126.908 141.364 127.182 141.364C145.055 141.364 159.545 126.822 159.545 108.882C159.545 90.9432 145.055 76.4006 127.182 76.4006C114.061 76.4006 102.764 84.2366 97.6835 95.5L80.4902 95.5Z" fill="black"/>
<path fill-rule="evenodd" clip-rule="evenodd" d="M110.353 141.364C92.479 141.364 77.9893 155.907 77.9893 173.846L94.1705 173.846C94.1705 164.876 101.415 157.605 110.352 157.605H110.353V141.364ZM126.534 173.846H142.717V173.846L126.534 173.846C126.534 173.846 126.534 173.846 126.534 173.846Z" fill="black"/>
<rect x="94.1704" y="197.882" width="16.1818" height="24.0365" transform="rotate(-180 94.1704 197.882)" fill="black"/>
<rect x="127.181" y="141.364" width="16.2409" height="16.8291" transform="rotate(90 127.181 141.364)" fill="black"/>
<path fill-rule="evenodd" clip-rule="evenodd" d="M95.2369 102.5C89.4429 122.902 70.7323 137.84 48.5455 137.84C21.7345 137.84 0 116.026 0 89.1177C0 62.2089 21.7345 40.3951 48.5455 40.3951C49.6245 40.3951 50.6954 40.4304 51.757 40.5H49.3635V56.6461C49.0917 56.6393 48.819 56.6359 48.5455 56.6359C30.6716 56.6359 16.1819 71.1785 16.1819 89.1176C16.1819 107.057 30.6716 121.599 48.5455 121.599C61.6659 121.599 72.9628 113.763 78.0435 102.5H95.2369Z" fill="black"/>
<path fill-rule="evenodd" clip-rule="evenodd" d="M65.3741 56.6359C83.2481 56.6359 97.7378 42.0933 97.7378 24.1542L81.5565 24.1542C81.5565 33.1238 74.3117 40.3951 65.3747 40.3951H65.3741V56.6359ZM49.1929 24.1542H33.0105V24.1542L49.1929 24.1542C49.1929 24.1542 49.1929 24.1542 49.1929 24.1542Z" fill="black"/>
<rect x="81.5566" y="0.117676" width="16.1818" height="24.0365" fill="black"/>
<rect x="48.5457" y="56.6359" width="16.2409" height="16.8291" transform="rotate(-90 48.5457 56.6359)" fill="black"/>
</svg>
